<svg width="45" height="37" viewBox="0 0 45 37" fill="none" xmlns="http://www.w3.org/2000/svg">
<path d="M9.28125 26.375H6.46875C5.97656 26.375 5.625 26.7969 5.625 27.2188V30.0312C5.625 30.5234 5.97656 30.875 6.46875 30.875H9.28125C9.70312 30.875 10.125 30.5234 10.125 30.0312V27.2188C10.125 26.7969 9.70312 26.375 9.28125 26.375ZM9.28125 19.625H6.46875C5.97656 19.625 5.625 20.0469 5.625 20.4688V23.2812C5.625 23.7734 5.97656 24.125 6.46875 24.125H9.28125C9.70312 24.125 10.125 23.7734 10.125 23.2812V20.4688C10.125 20.0469 9.70312 19.625 9.28125 19.625ZM9.28125 12.875H6.46875C5.97656 12.875 5.625 13.2969 5.625 13.7188V16.5312C5.625 17.0234 5.97656 17.375 6.46875 17.375H9.28125C9.70312 17.375 10.125 17.0234 10.125 16.5312V13.7188C10.125 13.2969 9.70312 12.875 9.28125 12.875ZM16.0312 26.375H13.2188C12.7266 26.375 12.375 26.7969 12.375 27.2188V30.0312C12.375 30.5234 12.7266 30.875 13.2188 30.875H16.0312C16.4531 30.875 16.875 30.5234 16.875 30.0312V27.2188C16.875 26.7969 16.4531 26.375 16.0312 26.375ZM16.0312 19.625H13.2188C12.7266 19.625 12.375 20.0469 12.375 20.4688V23.2812C12.375 23.7734 12.7266 24.125 13.2188 24.125H16.0312C16.4531 24.125 16.875 23.7734 16.875 23.2812V20.4688C16.875 20.0469 16.4531 19.625 16.0312 19.625ZM16.0312 12.875H13.2188C12.7266 12.875 12.375 13.2969 12.375 13.7188V16.5312C12.375 17.0234 12.7266 17.375 13.2188 17.375H16.0312C16.4531 17.375 16.875 17.0234 16.875 16.5312V13.7188C16.875 13.2969 16.4531 12.875 16.0312 12.875ZM29.5312 19.625H26.7188C26.2266 19.625 25.875 20.0469 25.875 20.4688V23.2812C25.875 23.7734 26.2266 24.125 26.7188 24.125H29.5312C29.9531 24.125 30.375 23.7734 30.375 23.2812V20.4688C30.375 20.0469 29.9531 19.625 29.5312 19.625ZM29.5312 12.875H26.7188C26.2266 12.875 25.875 13.2969 25.875 13.7188V16.5312C25.875 17.0234 26.2266 17.375 26.7188 17.375H29.5312C29.9531 17.375 30.375 17.0234 30.375 16.5312V13.7188C30.375 13.2969 29.9531 12.875 29.5312 12.875ZM29.5312 6.125H26.7188C26.2266 6.125 25.875 6.54688 25.875 6.96875V9.78125C25.875 10.2734 26.2266 10.625 26.7188 10.625H29.5312C29.9531 10.625 30.375 10.2734 30.375 9.78125V6.96875C30.375 6.54688 29.9531 6.125 29.5312 6.125ZM38.5312 26.375H35.7188C35.2266 26.375 34.875 26.7969 34.875 27.2188V30.0312C34.875 30.5234 35.2266 30.875 35.7188 30.875H38.5312C38.9531 30.875 39.375 30.5234 39.375 30.0312V27.2188C39.375 26.7969 38.9531 26.375 38.5312 26.375ZM38.5312 19.625H35.7188C35.2266 19.625 34.875 20.0469 34.875 20.4688V23.2812C34.875 23.7734 35.2266 24.125 35.7188 24.125H38.5312C38.9531 24.125 39.375 23.7734 39.375 23.2812V20.4688C39.375 20.0469 38.9531 19.625 38.5312 19.625ZM43.3125 14H36V2.1875C36 1.27344 35.2266 0.5 34.3125 0.5H21.9375C20.9531 0.5 20.25 1.27344 20.25 2.1875V7.25H15.75V1.0625C15.75 0.78125 15.4688 0.5 15.1875 0.5H14.0625C13.7109 0.5 13.5 0.78125 13.5 1.0625V7.25H9V1.0625C9 0.78125 8.71875 0.5 8.4375 0.5H7.3125C6.96094 0.5 6.75 0.78125 6.75 1.0625V7.25H1.6875C0.703125 7.25 0 8.02344 0 8.9375V35.9375C0 36.2891 0.210938 36.5 0.5625 36.5H1.6875C1.96875 36.5 2.25 36.2891 2.25 35.9375V9.5H22.5V2.75H33.75V16.25H42.75V35.9375C42.75 36.2891 42.9609 36.5 43.3125 36.5H44.4375C44.7188 36.5 45 36.2891 45 35.9375V15.6875C45 14.7734 44.2266 14 43.3125 14Z" fill="#FAC206"/>
</svg>
