<svg width="41" height="37" viewBox="0 0 41 37" fill="none" xmlns="http://www.w3.org/2000/svg">
<path d="M39.7266 7.03906L21.0234 0.710938C20.7422 0.570312 20.4609 0.5 20.25 0.5C19.9688 0.5 19.6875 0.570312 19.4062 0.710938L0.703125 7.03906C0.28125 7.17969 0 7.60156 0 8.09375V10.625C0 11.2578 0.492188 11.75 1.125 11.75H39.375C39.9375 11.75 40.5 11.2578 40.5 10.625V8.09375C40.5 7.60156 40.1484 7.17969 39.7266 7.03906ZM38.25 9.5H2.25V8.86719L20.25 2.75L38.25 8.86719V9.5ZM39.9375 34.25H38.25V29.75C38.25 28.5547 37.0547 27.5 35.6484 27.5H34.875V14H32.625V27.5H25.875V14H23.625V27.5H16.875V14H14.625V27.5H7.875V14H5.625V27.5H4.78125C3.375 27.5 2.25 28.5547 2.25 29.75V34.25H0.5625C0.210938 34.25 0 34.5312 0 34.8125V35.9375C0 36.2891 0.210938 36.5 0.5625 36.5H39.9375C40.2188 36.5 40.5 36.2891 40.5 35.9375V34.8125C40.5 34.5312 40.2188 34.25 39.9375 34.25ZM36 34.25H4.5V29.8906C4.5 29.8203 4.64062 29.75 4.78125 29.75H35.6484C35.7891 29.75 35.9297 29.8203 36 29.8906V34.25Z" fill="#00C3FF"/>
</svg>
