<svg width="32" height="37" viewBox="0 0 32 37" fill="none" xmlns="http://www.w3.org/2000/svg">
<path d="M13.5 8.02344C13.5 7.60156 13.0781 7.17969 12.6562 7.17969H9.84375C9.35156 7.17969 9 7.60156 9 8.02344V10.8359C9 11.3281 9.35156 11.6797 9.84375 11.6797H12.6562C13.0781 11.6797 13.5 11.3281 13.5 10.8359V8.02344ZM21.6562 7.17969H18.8438C18.3516 7.17969 18 7.60156 18 8.02344V10.8359C18 11.3281 18.3516 11.6797 18.8438 11.6797H21.6562C22.0781 11.6797 22.5 11.3281 22.5 10.8359V8.02344C22.5 7.60156 22.0781 7.17969 21.6562 7.17969ZM12.6562 13.9297H9.84375C9.35156 13.9297 9 14.3516 9 14.7734V17.5859C9 18.0781 9.35156 18.4297 9.84375 18.4297H12.6562C13.0781 18.4297 13.5 18.0781 13.5 17.5859V14.7734C13.5 14.3516 13.0781 13.9297 12.6562 13.9297ZM21.6562 13.9297H18.8438C18.3516 13.9297 18 14.3516 18 14.7734V17.5859C18 18.0781 18.3516 18.4297 18.8438 18.4297H21.6562C22.0781 18.4297 22.5 18.0781 22.5 17.5859V14.7734C22.5 14.3516 22.0781 13.9297 21.6562 13.9297ZM12.6562 20.6797H9.84375C9.35156 20.6797 9 21.1016 9 21.5234V24.3359C9 24.8281 9.35156 25.1797 9.84375 25.1797H12.6562C13.0781 25.1797 13.5 24.8281 13.5 24.3359V21.5234C13.5 21.1016 13.0781 20.6797 12.6562 20.6797ZM21.6562 20.6797H18.8438C18.3516 20.6797 18 21.1016 18 21.5234V24.3359C18 24.8281 18.3516 25.1797 18.8438 25.1797H21.6562C22.0781 25.1797 22.5 24.8281 22.5 24.3359V21.5234C22.5 21.1016 22.0781 20.6797 21.6562 20.6797ZM31.5 35.0938C31.5 34.6719 31.0781 34.25 30.6562 34.25H29.25V2.1875C29.25 1.27344 28.4766 0.5 27.5625 0.5H3.9375C2.95312 0.5 2.25 1.27344 2.25 2.1875V34.25H0.84375C0.351562 34.25 0 34.6719 0 35.0938V36.5H31.5V35.0938ZM27 34.25H18V28.2734C18 27.8516 17.5781 27.4297 17.1562 27.4297H14.3438C13.8516 27.4297 13.5 27.8516 13.5 28.2734V34.25H4.5V2.75H27V34.25Z" fill="#0053FF"/>
</svg>
