<svg width="36" height="27" viewBox="0 0 36 27" fill="none" xmlns="http://www.w3.org/2000/svg">
<path d="M29.8125 20.25H30.9375C31.2188 20.25 31.5 20.0391 31.5 19.6875V2.8125C31.5 2.53125 31.2188 2.25 30.9375 2.25H29.8125C29.4609 2.25 29.25 2.53125 29.25 2.8125V19.6875C29.25 20.0391 29.4609 20.25 29.8125 20.25ZM23.0625 20.25H24.1875C24.4688 20.25 24.75 20.0391 24.75 19.6875V9.5625C24.75 9.28125 24.4688 9 24.1875 9H23.0625C22.7109 9 22.5 9.28125 22.5 9.5625V19.6875C22.5 20.0391 22.7109 20.25 23.0625 20.25ZM9.5625 20.25H10.6875C10.9688 20.25 11.25 20.0391 11.25 19.6875V14.0625C11.25 13.7812 10.9688 13.5 10.6875 13.5H9.5625C9.21094 13.5 9 13.7812 9 14.0625V19.6875C9 20.0391 9.21094 20.25 9.5625 20.25ZM16.3125 20.25H17.4375C17.7188 20.25 18 20.0391 18 19.6875V5.0625C18 4.78125 17.7188 4.5 17.4375 4.5H16.3125C15.9609 4.5 15.75 4.78125 15.75 5.0625V19.6875C15.75 20.0391 15.9609 20.25 16.3125 20.25ZM35.4375 24.75H2.25V0.5625C2.25 0.28125 1.96875 0 1.6875 0H0.5625C0.210938 0 0 0.28125 0 0.5625V25.875C0 26.5078 0.492188 27 1.125 27H35.4375C35.7188 27 36 26.7891 36 26.4375V25.3125C36 25.0312 35.7188 24.75 35.4375 24.75Z" fill="#002D55"/>
</svg>
