<svg xmlns="http://www.w3.org/2000/svg" viewBox="0 0 209 43"><g fill="#FFF" fill-rule="evenodd"><g fill-rule="nonzero"><path d="M29.082 0L0 29.13v13.018L17.795 24.32l17.796 17.828h6.557v-6.436L24.273 17.828 42.148 0zM0 0v22.448L22.449 0z"/><path d="M17.8 30.95L6.605 42.148h22.392zM30.954 17.8L42.148 29V6.605z"/></g><path fill-rule="nonzero" d="M208.6 17.013l-3.352 2.5c-.793-1.062-1.9-1.575-3.352-1.575-1.21 0-2.283.41-3.18 1.198-.897.785-1.349 1.78-1.349 3.045s.452 2.292 1.349 3.148a4.573 4.573 0 003.18 1.232c1.452 0 2.559-.55 3.352-1.608l3.388 2.462c-1.52 2.022-4.01 3.15-6.74 3.15-2.387 0-4.457-.79-6.152-2.363-1.693-1.575-2.558-3.592-2.558-6.02 0-2.43.865-4.413 2.558-5.954 1.695-1.54 3.765-2.327 6.152-2.327 2.73 0 5.185 1.163 6.704 3.112zm-130.133 4.69v8.518H74.25V21.43c-.034-2.156-1.277-3.457-2.972-3.457-1.934 0-3.386 1.165-3.386 3.73v8.52h-4.218V14.242h4.218v2.36c.827-1.779 2.834-2.668 4.63-2.668 2.594.136 4.286 1.129 5.15 2.978 1.142-2.02 2.834-3.012 5.083-3.012 3.973 0 6.219 2.533 6.219 7.185v9.135h-4.181v-8.69c0-2.225-1.245-3.559-3.04-3.559-1.973 0-3.285 1.37-3.285 3.73zm29.81-7.459l-9.988 23.78H93.83l3.698-9.034-6.29-14.746h4.492l4.01 9.954 4.044-9.954h4.492zm8.235-6.09v6.09h3.422v3.351h-3.422v12.627h-4.183V17.595h-2.937v-3.35h2.937v-6.09h4.183zm10.826 22.068h-4.218V14.244h4.218v3.764c.795-2.738 2.592-4.106 4.563-4.106 1.036 0 1.936.205 2.659.582l-.723 3.764c-.658-.309-1.489-.446-2.454-.446-2.696 0-4.045 2.257-4.045 6.775v5.645zm20.54-11.155c-.863-.786-1.9-1.162-3.076-1.162-1.21 0-2.246.409-3.147 1.23-.863.787-1.312 1.815-1.312 3.08 0 1.267.449 2.293 1.312 3.115 2.559 2.532 7.742.854 7.571-3.116 0-1.333-.451-2.358-1.348-3.147zm1.348 11.155v-2.053c-.968 1.507-3.214 2.361-5.012 2.361-2.212 0-4.149-.754-5.772-2.292-1.625-1.54-2.455-3.56-2.455-6.024 0-2.462.796-4.446 2.42-5.987 1.624-1.539 3.56-2.326 5.807-2.326 1.798 0 3.94.72 5.012 2.326v-1.983h4.216v15.978h-4.216zm35.438-22.17c0-1.405 1.244-2.5 2.73-2.5 1.485 0 2.66 1.095 2.66 2.5 0 1.4-1.175 2.531-2.66 2.531-1.523 0-2.73-1.13-2.73-2.532zm4.805 6.192v15.978h-4.183V17.596h-8.089v12.626h-4.252V17.596h-8.986v12.626h-4.25V17.596h-3.08v-3.352h3.08v-1.267c0-4.686 2.417-7.425 6.876-7.425h1.765v4.003h-1.765c-1.763 0-2.626 1.13-2.626 3.422v1.267h8.986v-1.267c0-4.686 2.42-7.425 6.878-7.425h1.765v4.003h-1.765c-1.761 0-2.626 1.13-2.626 3.422v1.267h12.272z"/></g></svg>