<svg width="41" height="37" viewBox="0 0 41 37" fill="none" xmlns="http://www.w3.org/2000/svg">
<path d="M0 4.71875C0 14.7734 4.85156 19.9062 13.2188 20.6797L5.90625 27.2188C4.07812 28.7656 4.00781 31.6484 5.69531 33.3359L7.66406 35.3047C9.42188 36.9922 12.2344 36.9219 13.7812 35.0938L20.3906 27.7109C27.1406 35.7266 26.6484 35.1641 26.7188 35.1641C28.3359 36.9219 31.0781 36.9922 32.7656 35.3047L34.7344 33.3359C36.4219 31.6484 36.3516 28.9062 34.5938 27.2188L27 20.1875L27.5625 19.625C30.2344 20.5391 32.9766 20.1172 35.2969 17.7969C36.7734 16.3203 39.6562 12.2422 40.0078 11.6797C41.4141 9.71094 39.4453 6.96875 37.3359 6.75781C37.125 5.21094 35.7188 3.80469 34.2422 3.66406C33.9609 1.48438 31.2891 -0.34375 29.3203 0.992188C28.7578 1.34375 24.6797 4.22656 23.2031 5.70312C20.9531 7.95312 20.4609 10.625 21.375 13.4375L20.5312 14.2109L7.03125 1.69531C4.35938 -0.835938 0 1.0625 0 4.71875ZM26.6484 17.2344L25.3828 18.6406L22.2188 15.7578L23.7656 14.3516C22.5 12.0312 22.7109 9.35938 24.75 7.32031C26.1562 5.91406 30.5859 2.82031 30.5859 2.82031C31.1484 2.46875 32.3438 3.73438 31.9922 4.22656L26.2969 9.92188C25.8047 10.4844 27 11.75 27.6328 11.3281L33.6797 5.91406C34.1719 5.5625 35.4375 6.75781 35.0859 7.32031L29.6719 13.3672C29.25 13.9297 30.5156 15.1953 31.0781 14.7031L36.7734 9.07812C37.2656 8.65625 38.5312 9.85156 38.1797 10.4141C38.1797 10.4141 35.0859 14.8438 33.6797 16.25C31.6406 18.2891 28.9688 18.5 26.6484 17.2344ZM15.3281 21.8047L18.9141 25.9531L12.1641 33.6172C11.3906 34.4609 10.0547 34.5312 9.28125 33.6875L7.3125 31.7188C6.46875 30.9453 6.53906 29.6094 7.38281 28.8359L15.3281 21.8047ZM2.25 4.71875C2.25 3.03125 4.28906 2.11719 5.55469 3.3125L33.1172 28.9062C33.8906 29.6797 33.9609 30.9453 33.1172 31.7188L31.1484 33.6875C30.375 34.4609 29.1094 34.4609 28.3359 33.6875L15.5391 18.5C5.69531 18.5 2.25 13.0156 2.25 4.71875Z" fill="#00B383"/>
</svg>
