<svg width="32" height="37" viewBox="0 0 32 37" fill="none" xmlns="http://www.w3.org/2000/svg">
<path d="M24.75 9.5C24.75 4.57812 20.6719 0.5 15.75 0.5C10.7578 0.5 6.75 4.57812 6.75 9.5H0V30.875C0 34.0391 2.46094 36.5 5.625 36.5H25.875C28.9688 36.5 31.5 34.0391 31.5 30.875V9.5H24.75ZM15.75 2.75C19.4062 2.75 22.5 5.84375 22.5 9.5H9C9 5.84375 12.0234 2.75 15.75 2.75ZM29.25 30.875C29.25 32.7734 27.7031 34.25 25.875 34.25H5.625C3.72656 34.25 2.25 32.7734 2.25 30.875V11.75H6.75V15.125C6.75 15.7578 7.24219 16.25 7.875 16.25C8.4375 16.25 9 15.7578 9 15.125V11.75H22.5V15.125C22.5 15.7578 22.9922 16.25 23.625 16.25C24.1875 16.25 24.75 15.7578 24.75 15.125V11.75H29.25V30.875Z" fill="#FF466D"/>
</svg>
